<svg width="40" height="40" viewBox="0 0 40 40" xmlns="http://www.w3.org/2000/svg">
  <rect width="40" height="40" fill="transparent"/>
  <circle cx="3" cy="5" r="1" fill="rgba(0,0,0,0.04)"/>
  <circle cx="12" cy="2" r="1" fill="rgba(0,0,0,0.03)"/>
  <circle cx="20" cy="8" r="1" fill="rgba(0,0,0,0.04)"/>
  <circle cx="28" cy="3" r="1" fill="rgba(0,0,0,0.03)"/>
  <circle cx="36" cy="10" r="1" fill="rgba(0,0,0,0.04)"/>
  <circle cx="6" cy="16" r="1" fill="rgba(0,0,0,0.03)"/>
  <circle cx="15" cy="14" r="1" fill="rgba(0,0,0,0.04)"/>
  <circle cx="22" cy="18" r="1" fill="rgba(0,0,0,0.03)"/>
  <circle cx="30" cy="15" r="1" fill="rgba(0,0,0,0.04)"/>
  <circle cx="38" cy="20" r="1" fill="rgba(0,0,0,0.03)"/>
  <circle cx="4" cy="24" r="1" fill="rgba(0,0,0,0.04)"/>
  <circle cx="10" cy="28" r="1" fill="rgba(0,0,0,0.03)"/>
  <circle cx="18" cy="26" r="1" fill="rgba(0,0,0,0.04)"/>
  <circle cx="26" cy="30" r="1" fill="rgba(0,0,0,0.03)"/>
  <circle cx="35" cy="27" r="1" fill="rgba(0,0,0,0.04)"/>
  <circle cx="7" cy="34" r="1" fill="rgba(0,0,0,0.03)"/>
  <circle cx="14" cy="36" r="1" fill="rgba(0,0,0,0.04)"/>
  <circle cx="21" cy="34" r="1" fill="rgba(0,0,0,0.03)"/>
  <circle cx="29" cy="36" r="1" fill="rgba(0,0,0,0.04)"/>
  <circle cx="37" cy="33" r="1" fill="rgba(0,0,0,0.03)"/>
</svg>
